PathFileType	4	(X/Y/Z)	/Users/niels/Desktop/University/Third Semester/Perception and Action/Exam/Gymnastics Motion Tracking/Code for Gym Tracking/Analyzed Data/Webcam_Backflip/id2_1_baseline_Sports2D/id2_1_baseline_Sports2D_px_person00.trc
DataRate	CameraRate	NumFrames	NumMarkers	Units	OrigDataRate	OrigDataStartFrame	OrigNumFrames
29.92207792207792	29.92207792207792	11	22	m	29.92207792207792	0	385
Frame#	Time	Hip			RHip			RKnee			RAnkle			RBigToe			RSmallToe			RHeel			LHip			LKnee			LAnkle			LBigToe			LSmallToe			LHeel			Neck			Head			Nose			RShoulder			RElbow			RWrist			LShoulder			LElbow			LWrist		
		X1	Y1	Z1	X2	Y2	Z2	X3	Y3	Z3	X4	Y4	Z4	X5	Y5	Z5	X6	Y6	Z6	X7	Y7	Z7	X8	Y8	Z8	X9	Y9	Z9	X10	Y10	Z10	X11	Y11	Z11	X12	Y12	Z12	X13	Y13	Z13	X14	Y14	Z14	X15	Y15	Z15	X16	Y16	Z16	X17	Y17	Z17	X18	Y18	Z18	X19	Y19	Z19	X20	Y20	Z20	X21	Y21	Z21	X22	Y22	Z22
0	0.0	0.9106516860663426	-0.48661486113957586	0.0	0.8379370524546882	-0.4892107742861116	0.0	0.8223383203734976	-0.7489470127564924	0.0	0.8483312785061465	-0.974896436458301	0.0	0.8691100725846964	-1.0294519669184248	0.0	0.8327479194575867	-1.021660021942178	0.0	0.845729178722834	-0.985296906184911	0.0	0.9755751741150631	-0.49960045621511145	0.0	0.9548214303774134	-0.754123354376895	0.0	0.9340495998628353	-1.0034211658163499	0.0	0.97306051475987	-1.065755038889089	0.0	0.9912251068873502	-1.0449804473572863	0.0	0.918458926025833	-1.0216186142858492	0.0	0.9366325697504233	-0.05547632366445748	0.0	0.9574109640418246	0.12894882394012067	0.0	0.9651991084400635	0.030223288316942116	0.0	0.7911894969047083	-0.10741758978255835	0.0	0.7730118644572008	-0.3151968790443339	0.0	0.8197615120034221	-0.47882050714949254	0.0	1.0612963972227103	-0.1359765148269944	0.0	1.0794625347378801	-0.32557879764582104	0.0	1.110627766453639	-0.47880434463585847	0.0
1	0.03342013888888889	0.9113536331824703	-0.48604654670003083	0.0	0.8405177210438661	-0.4901056875654476	0.0	0.8273443580749859	-0.7476167246709045	0.0	0.8510758694070562	-0.966062204023127	0.0	0.8793602608416095	-1.023123582241209	0.0	0.8400069683330217	-1.0167110976963103	0.0	0.84569268274953	-0.9766226290803968	0.0	0.9754755969866642	-0.49915180652885893	0.0	0.9555635008201185	-0.7557972196087025	0.0	0.9358016068158946	-1.0038634309202912	0.0	0.9742777839155359	-1.0696111764120353	0.0	0.992167188509966	-1.0482016468222577	0.0	0.9195063278742691	-1.0204782897862492	0.0	0.9360615623229304	-0.05705033301240829	0.0	0.9598433028201342	0.12821295683869316	0.0	0.9690663050655072	0.028716657090363827	0.0	0.791616674611402	-0.1097268489134435	0.0	0.771585729684109	-0.3163320514890727	0.0	0.810250237338912	-0.4813484469867278	0.0	1.0578594188769388	-0.13951172932686576	0.0	1.075393965049369	-0.3285902849712901	0.0	1.108238498806939	-0.4836409359088832	0.0
2	0.06684027777777778	0.9119026652520215	-0.4857759812801283	0.0	0.8426854039671313	-0.4908053044979225	0.0	0.8321579441876635	-0.7462915617535494	0.0	0.8537469154724596	-0.9590186539961915	0.0	0.8883066475470461	-1.0181097240390113	0.0	0.8463150599924686	-1.0126819671890526	0.0	0.8460077837053144	-0.9698249778697741	0.0	0.9752898331349866	-0.49863199986442763	0.0	0.9563577498096858	-0.7569801521774913	0.0	0.9373763319121314	-1.0042348082169168	0.0	0.9753485590044895	-1.073196748388407	0.0	0.9930460411623477	-1.051131594333734	0.0	0.9204234584209532	-1.0195541174532188	0.0	0.9351076277924548	-0.059151420423025416	0.0	0.9620943342653729	0.1256638638715418	0.0	0.9731708096576215	0.026005027608532103	0.0	0.7916170629648019	-0.11232550218544401	0.0	0.769864128004761	-0.31771160370096135	0.0	0.8003048380403467	-0.48407270913290174	0.0	1.0543741897186067	-0.14300986703540502	0.0	1.071345952741463	-0.3312270789528129	0.0	1.1059396898477192	-0.4877398112399078	0.0
3	0.10026041666666666	0.9121812160191316	-0.4859474834276075	0.0	0.8441968051879711	-0.491287603684379	0.0	0.8365211499189129	-0.7450701640632529	0.0	0.8562659510944638	-0.954603758405535	0.0	0.8949269689676774	-1.0149804126265287	0.0	0.8510528497655058	-1.009947567668743	0.0	0.8469257935123171	-0.9656715228806354	0.0	0.9749527814488811	-0.4981024323121524	0.0	0.9571381253519854	-0.7575350028647717	0.0	0.9386639992250468	-1.0046406738348692	0.0	0.9760617639898612	-1.0762775742924453	0.0	0.993799155532447	-1.0536515477012327	0.0	0.9211031672201289	-1.0191232745911158	0.0	0.9334881895361188	-0.062136504225933	0.0	0.9640434799751617	0.11976866965635755	0.0	0.9774208605455061	0.02146081191439186	0.0	0.7910124291717563	-0.11548938498339296	0.0	0.7676509295798774	-0.3196020957639607	0.0	0.7896220881366629	-0.4871423637602708	0.0	1.0507411917826226	-0.1464865983535627	0.0	1.06726168729042	-0.3332607159778886	0.0	1.1037558237210643	-0.4904805975906709	0.0
4	0.13368055555555555	0.9121694775733535	-0.4864511793204998	0.0	0.8450745261900964	-0.49162039074072306	0.0	0.8401921987604425	-0.7441431322968266	0.0	0.8585417826201389	-0.9526569030161106	0.0	0.8988920328335808	-1.0135082476583992	0.0	0.8541372858734937	-1.008322135022842	0.0	0.8484672770556922	-0.9638838096595228	0.0	0.9744365468513926	-0.4976317494292154	0.0	0.9577695227134959	-0.7576273416898632	0.0	0.9395960185660535	-1.005167577525092	0.0	0.9763086826530559	-1.0786451826541075	0.0	0.9943573210311162	-1.0556892247820993	0.0	0.9214609129191422	-1.0192196284428199	0.0	0.9310804257221285	-0.06609562521240152	0.0	0.9656592013147871	0.10989956304673731	0.0	0.9814232149497277	0.015122973039104827	0.0	0.7898803060725231	-0.11934730724414838	0.0	0.7649126138383361	-0.32218227475989225	0.0	0.7782070997988072	-0.49070419991554937	0.0	1.0468829521553198	-0.14991512806373658	0.0	1.0630215501099993	-0.3346357774554086	0.0	1.1015995024865908	-0.49151641731216866	0.0
5	0.16710069444444445	0.9119251211779021	-0.4870203094850799	0.0	0.8455046327599253	-0.49184544312890366	0.0	0.8430782512285288	-0.7436958313689749	0.0	0.8605158593621001	-0.952728580997803	0.0	0.900798218172568	-1.0133326372413751	0.0	0.8560753589373953	-1.0076212353894487	0.0	0.8504818341586207	-0.9640408967933314	0.0	0.9737287468273149	-0.4971870956422928	0.0	0.9581807481928704	-0.7574610623294181	0.0	0.9402674476771423	-1.0057240983754625	0.0	0.9761979615022482	-1.0800597824633396	0.0	0.994692965805129	-1.0570470678345238	0.0	0.9215789419013772	-1.0195418158305796	0.0	0.927931380558437	-0.07086782880507567	0.0	0.9670316217802143	0.09697554871000572	0.0	0.9848007142325155	0.007406158901161696	0.0	0.7884161801778771	-0.12383661425638481	0.0	0.7617035748436916	-0.32547350786994317	0.0	0.7663596297574123	-0.494952779044857	0.0	1.0427688661184065	-0.15314216548547113	0.0	1.058523637062387	-0.3353965648674002	0.0	1.0992736460552528	-0.49081123745851984	0.0
6	0.20052083333333331	0.9114741406111023	-0.4874523901254893	0.0	0.845612529608935	-0.4920026365011477	0.0	0.8452583090475462	-0.743813674401647	0.0	0.862229057990376	-0.9546059035946749	0.0	0.9018520685352444	-1.0144545164589631	0.0	0.8577521155897015	-1.0080532154126747	0.0	0.8528233391330211	-0.9661034997723609	0.0	0.9727936349068897	-0.4966923809846629	0.0	0.95844223104727	-0.7571174826753551	0.0	0.9410603928498062	-1.0061590147636477	0.0	0.9759574174583312	-1.080318674680968	0.0	0.9949091729287896	-1.057495185609716	0.0	0.9218452188017546	-1.01975252367816	0.0	0.9242587005952861	-0.07610494341259602	0.0	0.9683773345688133	0.08312519012306278	0.0	0.9874191529384078	-0.0011333565413316278	0.0	0.7868308306166703	-0.12880800287973193	0.0	0.7581001790378679	-0.32935984962812637	0.0	0.754515040682817	-0.4999720361477211	0.0	1.03839937957047	-0.1559637777120439	0.0	1.0537711729615087	-0.3356321994269086	0.0	1.096574110959848	-0.4885753417727146	0.0
7	0.2339409722222222	0.9107304633680929	-0.48770891490477913	0.0	0.8453662353062417	-0.49215472032914415	0.0	0.8468867239386143	-0.7444044127623024	0.0	0.8637756835218732	-0.9580935583021402	0.0	0.9030765872290145	-1.0169303714876539	0.0	0.8598866957614758	-1.0098441220675565	0.0	0.8554274059686303	-0.9700219279967159	0.0	0.9715532423928426	-0.4960957557705085	0.0	0.9587400746667151	-0.7565436337444563	0.0	0.9425151555959728	-1.0063261965844315	0.0	0.975815388063729	-1.079320941816773	0.0	0.9953119012075146	-1.0569333136891677	0.0	0.9228635598774872	-1.0196876898822942	0.0	0.9203796772892355	-0.0813960374124846	0.0	0.9699459958091183	0.07041708987611987	0.0	0.9892868484626783	-0.009904096977436029	0.0	0.7852910951367338	-0.1341562204207594	0.0	0.7542595400158025	-0.33365042946782236	0.0	0.7431059919392359	-0.5055333537402754	0.0	1.0337867637365135	-0.15825588853547054	0.0	1.04886422128389	-0.3354809756467883	0.0	1.0934052967219554	-0.4852100122302025	0.0
8	0.2673611111111111	0.9095609586808456	-0.4878605324689522	0.0	0.8447082773278978	-0.49234354174076705	0.0	0.8480577232435081	-0.7451523001204303	0.0	0.8651701121853284	-0.9624998825869148	0.0	0.9046976904571609	-1.0202989953565917	0.0	0.8625351336904894	-1.0126278473854229	0.0	0.8582528031147585	-0.9750910011945364	0.0	0.9699240286670228	-0.4953937790448024	0.0	0.9592638990204501	-0.7556133402112019	0.0	0.9450354171554488	-1.0060225013860526	0.0	0.9760024530733084	-1.07700551101285	0.0	0.9963534333826329	-1.0553808382036722	0.0	0.9251311505900432	-1.0193072664705598	0.0	0.9165934582907178	-0.0864188419359192	0.0	0.9718261086567864	0.060080977166761945	0.0	0.9903580827311279	-0.01834919773371435	0.0	0.7839019946232814	-0.13982086327680807	0.0	0.7504714986355818	-0.3381407992429374	0.0	0.7325547300010177	-0.5111362438584919	0.0	1.0289612184918377	-0.1600130131809579	0.0	1.0439514450634368	-0.3351196217858602	0.0	1.089817591342938	-0.48125508461703687	0.0
9	0.30078125	0.907932117801401	-0.48800545602856454	0.0	0.8437248256160114	-0.49255785742983005	0.0	0.8487449894097197	-0.7456027833247435	0.0	0.866307216073881	-0.9666370241496197	0.0	0.9062560298495681	-1.0235372244896164	0.0	0.8651440367213714	-1.0154573314278648	0.0	0.861175083222306	-0.9799895108023103	0.0	0.967872811563409	-0.4946205974871234	0.0	0.960111005140955	-0.7541711176699956	0.0	0.9486845942527874	-1.0048988871050248	0.0	0.9768433986102725	-1.0731949169586603	0.0	0.9984648541362549	-1.0527659989000386	0.0	0.9287325329703405	-1.0184891956872737	0.0	0.9131264685638307	-0.09102147572171217	0.0	0.9738339474909825	0.052503484583573935	0.0	0.9905809068206864	-0.026038892163123325	0.0	0.7827769065511188	-0.14566126611487795	0.0	0.7471326548424132	-0.3426226540281101	0.0	0.7233395887749353	-0.5162147225719925	0.0	1.0240366926544027	-0.16129835574127985	0.0	1.0391937172903338	-0.33469244272709064	0.0	1.0859577800794062	-0.4772463710538986	0.0
10	0.3342013888888889	0.9059767352118655	-0.4882030001904105	0.0	0.8426456645806378	-0.4927554140821839	0.0	0.848889487180331	-0.7454473566968306	0.0	0.8671021323086814	-0.9694519033163186	0.0	0.9072501478831869	-1.025682679485964	0.0	0.8671388119844066	-1.017467234046214	0.0	0.8639621618800333	-0.9835912310643465	0.0	0.9654448870841496	-0.49382244425976485	0.0	0.9612677206226576	-0.7520991216400945	0.0	0.9531342357747269	-1.0024417144059394	0.0	0.9788907971043083	-1.0675667602630463	0.0	1.0019420257491438	-1.0487838983319802	0.0	0.9332464284600821	-1.0168885317585938	0.0	0.9101502852328672	-0.0951828381968462	0.0	0.9756515461026058	0.047398753916743766	0.0	0.990078912237007	-0.03277325104313208	0.0	0.7820832896066917	-0.1513554647386003	0.0	0.7446489507993204	-0.34683613248704803	0.0	0.7159679823726944	-0.5203112819747485	0.0	1.0192694231831079	-0.16218239043765828	0.0	1.0347181478614564	-0.3342581051036287	0.0	1.0819872049978265	-0.47353376607369274	0.0
